<mxfile host="Electron" agent="Mozilla/5.0 (Windows NT 10.0; Win64; x64) AppleWebKit/537.36 (KHTML, like Gecko) draw.io/27.0.9 Chrome/134.0.6998.205 Electron/35.4.0 Safari/537.36" version="27.0.9">
  <diagram name="PÃ¡gina-1" id="JsjYgfUwg1E99Odx214-">
    <mxGraphModel dx="809" dy="568" grid="1" gridSize="10" guides="1" tooltips="1" connect="1" arrows="1" fold="1" page="1" pageScale="1" pageWidth="827" pageHeight="1169" math="0" shadow="0">
      <root>
        <mxCell id="0" />
        <mxCell id="1" parent="0" />
        <mxCell id="30FtFz2RCGsdJv6julSl-1" value="CU004 Gestionar cuentas" style="swimlane;childLayout=stackLayout;resizeParent=1;resizeParentMax=0;startSize=20;horizontal=0;horizontalStack=1;" parent="1" vertex="1">
          <mxGeometry x="44" y="45" width="740" height="540" as="geometry">
            <mxRectangle x="200" y="80" width="40" height="50" as="alternateBounds" />
          </mxGeometry>
        </mxCell>
        <mxCell id="30FtFz2RCGsdJv6julSl-4" value="Administrador" style="swimlane;startSize=20;" parent="30FtFz2RCGsdJv6julSl-1" vertex="1">
          <mxGeometry x="20" width="290" height="540" as="geometry" />
        </mxCell>
        <mxCell id="30FtFz2RCGsdJv6julSl-5" value="" style="ellipse;html=1;shape=startState;fillColor=#000000;strokeColor=#ff0000;fillStyle=auto;" parent="30FtFz2RCGsdJv6julSl-4" vertex="1">
          <mxGeometry x="20" y="25" width="30" height="30" as="geometry" />
        </mxCell>
        <mxCell id="30FtFz2RCGsdJv6julSl-36" value="Pulsa el apartado &quot;Administrar cuentas&quot;" style="rhombus;whiteSpace=wrap;html=1;fontColor=#000000;fillColor=#ffffc0;strokeColor=#ff0000;" parent="30FtFz2RCGsdJv6julSl-4" vertex="1">
          <mxGeometry x="60" y="80" width="190" height="110" as="geometry" />
        </mxCell>
        <mxCell id="30FtFz2RCGsdJv6julSl-39" value="" style="edgeStyle=orthogonalEdgeStyle;html=1;verticalAlign=bottom;endArrow=open;endSize=8;strokeColor=#ff0000;rounded=0;entryX=0.5;entryY=0;entryDx=0;entryDy=0;" parent="30FtFz2RCGsdJv6julSl-4" source="30FtFz2RCGsdJv6julSl-5" target="30FtFz2RCGsdJv6julSl-36" edge="1">
          <mxGeometry relative="1" as="geometry">
            <mxPoint x="906" y="335" as="targetPoint" />
            <mxPoint x="340" y="320" as="sourcePoint" />
          </mxGeometry>
        </mxCell>
        <mxCell id="30FtFz2RCGsdJv6julSl-40" value="" style="ellipse;html=1;shape=endState;fillColor=#000000;strokeColor=#ff0000;" parent="30FtFz2RCGsdJv6julSl-4" vertex="1">
          <mxGeometry x="230" y="410" width="30" height="30" as="geometry" />
        </mxCell>
        <mxCell id="30FtFz2RCGsdJv6julSl-38" value="no" style="edgeStyle=orthogonalEdgeStyle;html=1;align=left;verticalAlign=top;endArrow=open;endSize=8;strokeColor=#ff0000;rounded=0;exitX=0.5;exitY=1;exitDx=0;exitDy=0;" parent="30FtFz2RCGsdJv6julSl-4" source="30FtFz2RCGsdJv6julSl-36" target="30FtFz2RCGsdJv6julSl-40" edge="1">
          <mxGeometry x="-1" relative="1" as="geometry">
            <mxPoint x="100" y="295.19305019305017" as="targetPoint" />
            <mxPoint x="104" y="230" as="sourcePoint" />
          </mxGeometry>
        </mxCell>
        <mxCell id="30FtFz2RCGsdJv6julSl-63" style="edgeStyle=orthogonalEdgeStyle;rounded=0;orthogonalLoop=1;jettySize=auto;html=1;entryX=0.5;entryY=0;entryDx=0;entryDy=0;strokeColor=light-dark(#ff0000, #ededed);" parent="30FtFz2RCGsdJv6julSl-4" source="30FtFz2RCGsdJv6julSl-36" target="30FtFz2RCGsdJv6julSl-40" edge="1">
          <mxGeometry relative="1" as="geometry" />
        </mxCell>
        <mxCell id="30FtFz2RCGsdJv6julSl-64" style="edgeStyle=orthogonalEdgeStyle;rounded=0;orthogonalLoop=1;jettySize=auto;html=1;exitX=1;exitY=0;exitDx=0;exitDy=0;entryX=0.5;entryY=0;entryDx=0;entryDy=0;strokeColor=light-dark(#ff0000, #ededed);" parent="30FtFz2RCGsdJv6julSl-1" source="30FtFz2RCGsdJv6julSl-36" target="30FtFz2RCGsdJv6julSl-10" edge="1">
          <mxGeometry relative="1" as="geometry">
            <Array as="points">
              <mxPoint x="490" y="107" />
            </Array>
          </mxGeometry>
        </mxCell>
        <mxCell id="30FtFz2RCGsdJv6julSl-65" value="si" style="edgeLabel;html=1;align=center;verticalAlign=middle;resizable=0;points=[];" parent="30FtFz2RCGsdJv6julSl-64" vertex="1" connectable="0">
          <mxGeometry x="-0.8926" y="3" relative="1" as="geometry">
            <mxPoint x="-9" y="-14" as="offset" />
          </mxGeometry>
        </mxCell>
        <mxCell id="30FtFz2RCGsdJv6julSl-9" value="Sistema" style="swimlane;startSize=20;" parent="30FtFz2RCGsdJv6julSl-1" vertex="1">
          <mxGeometry x="310" width="430" height="540" as="geometry" />
        </mxCell>
        <mxCell id="30FtFz2RCGsdJv6julSl-66" style="edgeStyle=orthogonalEdgeStyle;rounded=0;orthogonalLoop=1;jettySize=auto;html=1;entryX=0.5;entryY=0;entryDx=0;entryDy=0;strokeColor=light-dark(#ff0000, #ededed);" parent="30FtFz2RCGsdJv6julSl-9" source="30FtFz2RCGsdJv6julSl-10" target="30FtFz2RCGsdJv6julSl-13" edge="1">
          <mxGeometry relative="1" as="geometry" />
        </mxCell>
        <mxCell id="30FtFz2RCGsdJv6julSl-10" value="Mostrar apartado" style="rounded=1;whiteSpace=wrap;html=1;arcSize=40;fontColor=#000000;fillColor=#ffffc0;strokeColor=#ff0000;" parent="30FtFz2RCGsdJv6julSl-9" vertex="1">
          <mxGeometry x="120" y="130" width="120" height="50" as="geometry" />
        </mxCell>
        <mxCell id="30FtFz2RCGsdJv6julSl-13" value="Mostrar lista de cuentas" style="rounded=1;whiteSpace=wrap;html=1;arcSize=40;fontColor=#000000;fillColor=#ffffc0;strokeColor=light-dark(#ff0000, #ededed);" parent="30FtFz2RCGsdJv6julSl-9" vertex="1">
          <mxGeometry x="120" y="200" width="120" height="40" as="geometry" />
        </mxCell>
        <mxCell id="30FtFz2RCGsdJv6julSl-42" value="" style="shape=line;html=1;strokeWidth=6;strokeColor=#ff0000;" parent="30FtFz2RCGsdJv6julSl-9" vertex="1">
          <mxGeometry x="80" y="290" width="210" height="10" as="geometry" />
        </mxCell>
        <mxCell id="30FtFz2RCGsdJv6julSl-48" value="" style="edgeStyle=orthogonalEdgeStyle;html=1;verticalAlign=bottom;endArrow=open;endSize=8;strokeColor=#ff0000;rounded=0;entryX=0.47;entryY=-0.037;entryDx=0;entryDy=0;entryPerimeter=0;" parent="30FtFz2RCGsdJv6julSl-9" target="30FtFz2RCGsdJv6julSl-49" edge="1">
          <mxGeometry relative="1" as="geometry">
            <mxPoint x="120" y="330" as="targetPoint" />
            <mxPoint x="88" y="300" as="sourcePoint" />
            <Array as="points">
              <mxPoint x="88" y="300" />
              <mxPoint x="88" y="344" />
            </Array>
          </mxGeometry>
        </mxCell>
        <mxCell id="30FtFz2RCGsdJv6julSl-49" value="Crear cuenta" style="rounded=1;whiteSpace=wrap;html=1;arcSize=40;fontColor=#000000;fillColor=#ffffc0;strokeColor=#ff0000;" parent="30FtFz2RCGsdJv6julSl-9" vertex="1">
          <mxGeometry x="50" y="345" width="80" height="40" as="geometry" />
        </mxCell>
        <mxCell id="30FtFz2RCGsdJv6julSl-52" value="" style="edgeStyle=orthogonalEdgeStyle;html=1;verticalAlign=bottom;endArrow=open;endSize=8;strokeColor=#ff0000;rounded=0;entryX=0.47;entryY=-0.037;entryDx=0;entryDy=0;entryPerimeter=0;" parent="30FtFz2RCGsdJv6julSl-9" target="30FtFz2RCGsdJv6julSl-53" edge="1">
          <mxGeometry relative="1" as="geometry">
            <mxPoint x="210" y="330" as="targetPoint" />
            <mxPoint x="178" y="300" as="sourcePoint" />
            <Array as="points">
              <mxPoint x="178" y="300" />
              <mxPoint x="178" y="344" />
            </Array>
          </mxGeometry>
        </mxCell>
        <mxCell id="30FtFz2RCGsdJv6julSl-58" style="edgeStyle=orthogonalEdgeStyle;rounded=0;orthogonalLoop=1;jettySize=auto;html=1;fontColor=light-dark(#ff0000, #ededed);strokeColor=light-dark(#ff0000, #ededed);" parent="30FtFz2RCGsdJv6julSl-9" source="30FtFz2RCGsdJv6julSl-53" target="30FtFz2RCGsdJv6julSl-56" edge="1">
          <mxGeometry relative="1" as="geometry" />
        </mxCell>
        <mxCell id="30FtFz2RCGsdJv6julSl-53" value="Eliminar cuenta" style="rounded=1;whiteSpace=wrap;html=1;arcSize=40;fontColor=#000000;fillColor=#ffffc0;strokeColor=#ff0000;" parent="30FtFz2RCGsdJv6julSl-9" vertex="1">
          <mxGeometry x="140" y="345" width="80" height="40" as="geometry" />
        </mxCell>
        <mxCell id="30FtFz2RCGsdJv6julSl-54" value="" style="edgeStyle=orthogonalEdgeStyle;html=1;verticalAlign=bottom;endArrow=open;endSize=8;strokeColor=#ff0000;rounded=0;entryX=0.47;entryY=-0.037;entryDx=0;entryDy=0;entryPerimeter=0;" parent="30FtFz2RCGsdJv6julSl-9" target="30FtFz2RCGsdJv6julSl-55" edge="1">
          <mxGeometry relative="1" as="geometry">
            <mxPoint x="300" y="330" as="targetPoint" />
            <mxPoint x="268" y="300" as="sourcePoint" />
            <Array as="points">
              <mxPoint x="268" y="300" />
              <mxPoint x="268" y="344" />
            </Array>
          </mxGeometry>
        </mxCell>
        <mxCell id="30FtFz2RCGsdJv6julSl-59" style="edgeStyle=orthogonalEdgeStyle;rounded=0;orthogonalLoop=1;jettySize=auto;html=1;strokeColor=light-dark(#ff0000, #ededed);" parent="30FtFz2RCGsdJv6julSl-9" source="30FtFz2RCGsdJv6julSl-55" target="30FtFz2RCGsdJv6julSl-56" edge="1">
          <mxGeometry relative="1" as="geometry" />
        </mxCell>
        <mxCell id="30FtFz2RCGsdJv6julSl-55" value="Editar cuenta" style="rounded=1;whiteSpace=wrap;html=1;arcSize=40;fontColor=#000000;fillColor=#ffffc0;strokeColor=#ff0000;" parent="30FtFz2RCGsdJv6julSl-9" vertex="1">
          <mxGeometry x="230" y="345" width="80" height="40" as="geometry" />
        </mxCell>
        <mxCell id="30FtFz2RCGsdJv6julSl-50" value="" style="edgeStyle=orthogonalEdgeStyle;html=1;verticalAlign=bottom;endArrow=open;endSize=8;strokeColor=#ff0000;rounded=0;entryX=0.47;entryY=-0.037;entryDx=0;entryDy=0;entryPerimeter=0;" parent="30FtFz2RCGsdJv6julSl-9" target="30FtFz2RCGsdJv6julSl-51" edge="1">
          <mxGeometry relative="1" as="geometry">
            <mxPoint x="120" y="330" as="targetPoint" />
            <mxPoint x="88" y="300" as="sourcePoint" />
            <Array as="points">
              <mxPoint x="88" y="300" />
              <mxPoint x="88" y="344" />
            </Array>
          </mxGeometry>
        </mxCell>
        <mxCell id="30FtFz2RCGsdJv6julSl-57" style="edgeStyle=orthogonalEdgeStyle;rounded=0;orthogonalLoop=1;jettySize=auto;html=1;fontColor=light-dark(#ff0000, #ededed);strokeColor=light-dark(#ff0000, #ededed);" parent="30FtFz2RCGsdJv6julSl-9" source="30FtFz2RCGsdJv6julSl-51" target="30FtFz2RCGsdJv6julSl-56" edge="1">
          <mxGeometry relative="1" as="geometry" />
        </mxCell>
        <mxCell id="30FtFz2RCGsdJv6julSl-51" value="Crear cuenta" style="rounded=1;whiteSpace=wrap;html=1;arcSize=40;fontColor=#000000;fillColor=#ffffc0;strokeColor=#ff0000;" parent="30FtFz2RCGsdJv6julSl-9" vertex="1">
          <mxGeometry x="50" y="345" width="80" height="40" as="geometry" />
        </mxCell>
        <mxCell id="30FtFz2RCGsdJv6julSl-56" value="" style="shape=line;html=1;strokeWidth=6;strokeColor=light-dark(#ff0000, #ededed);" parent="30FtFz2RCGsdJv6julSl-9" vertex="1">
          <mxGeometry x="75" y="440" width="210" height="10" as="geometry" />
        </mxCell>
        <mxCell id="30FtFz2RCGsdJv6julSl-62" style="edgeStyle=orthogonalEdgeStyle;rounded=0;orthogonalLoop=1;jettySize=auto;html=1;strokeColor=light-dark(#ff0000, #ededed);entryX=0.476;entryY=0.343;entryDx=0;entryDy=0;entryPerimeter=0;" parent="30FtFz2RCGsdJv6julSl-9" source="30FtFz2RCGsdJv6julSl-13" target="30FtFz2RCGsdJv6julSl-42" edge="1">
          <mxGeometry relative="1" as="geometry">
            <mxPoint x="180" y="290" as="targetPoint" />
            <Array as="points" />
          </mxGeometry>
        </mxCell>
        <mxCell id="30FtFz2RCGsdJv6julSl-60" style="edgeStyle=orthogonalEdgeStyle;rounded=0;orthogonalLoop=1;jettySize=auto;html=1;entryX=0.5;entryY=1;entryDx=0;entryDy=0;strokeColor=light-dark(#ff0000, #ededed);" parent="30FtFz2RCGsdJv6julSl-1" source="30FtFz2RCGsdJv6julSl-56" target="30FtFz2RCGsdJv6julSl-40" edge="1">
          <mxGeometry relative="1" as="geometry">
            <Array as="points">
              <mxPoint x="490" y="480" />
              <mxPoint x="265" y="480" />
            </Array>
          </mxGeometry>
        </mxCell>
      </root>
    </mxGraphModel>
  </diagram>
</mxfile>
